<svg fill="#15aabf" height="200px" width="200px" version="1.1" id="Capa_1" xmlns="http://www.w3.org/2000/svg" xmlns:xlink="http://www.w3.org/1999/xlink" viewBox="-6.18 -6.18 36.12 36.12" xml:space="preserve" transform="rotate(0)matrix(1, 0, 0, 1, 0, 0)" stroke="#15aabf" stroke-width="0.00023757999999999999"><g id="SVGRepo_bgCarrier" stroke-width="0" transform="translate(0,0), scale(1)"><path transform="translate(-6.18, -6.18), scale(1.12875)" d="M16,28.700461373797484C18.43932717536112,28.93155366700731,21.014317323351502,29.57146497063728,23.22301803848573,28.51063422664378C25.469486528500813,27.431663760753462,26.648872791061674,25.021721542899957,28.008228406850193,22.93295390318547C29.433010130610317,20.743653381908363,31.320518925341716,18.61171863798111,31.364852759454934,16C31.409329269233574,13.379876298436596,29.785801805969204,11.050144375434442,28.245931322943925,8.92980825422066C26.811075382785265,6.9540726893182025,24.905297957320577,5.4588231007751675,22.804983021425354,4.2134236622477275C20.68578808882782,2.9568291705924894,18.460566874702945,1.543469956592466,16,1.6684800918613156C13.568922273382213,1.7919920185551454,11.58246647909187,3.497033381150139,9.582855347011774,4.885179421505432C7.718577014799424,6.179376349829536,5.960343847336773,7.586297030869286,4.729167761846355,9.492781973310873C3.4579998499915425,11.46119454388218,2.33881629149528,13.657752428683073,2.4050901383161545,15.999999999999998C2.470762100118058,18.320975775706444,3.846725361080511,20.337979680295355,5.09149199218013,22.29803003477198C6.294971876959033,24.193068924658157,7.590085126922929,26.07673227598151,9.526144785008254,27.213046153210428C11.46881280152458,28.35323861411805,13.757487080849888,28.48801449161066,16,28.700461373797484" fill="#ffffff" strokewidth="0"></path></g><g id="SVGRepo_tracerCarrier" stroke-linecap="round" stroke-linejoin="round" stroke="#CCCCCC" stroke-width="0.047515999999999996"></g><g id="SVGRepo_iconCarrier"> <path d="M4.523,23.758V0h14.712v4.021H9.319v5.625h9.916v4.016H9.319v10.096H4.523z"></path> </g></svg>